<?xml version="1.0" encoding="UTF-8" standalone="no"?>
<!-- Created with Inkscape (http://www.inkscape.org/) -->

<svg
   xmlns:dc="http://purl.org/dc/elements/1.1/"
   xmlns:cc="http://creativecommons.org/ns#"
   xmlns:rdf="http://www.w3.org/1999/02/22-rdf-syntax-ns#"
   xmlns:svg="http://www.w3.org/2000/svg"
   xmlns="http://www.w3.org/2000/svg"
   xmlns:sodipodi="http://sodipodi.sourceforge.net/DTD/sodipodi-0.dtd"
   xmlns:inkscape="http://www.inkscape.org/namespaces/inkscape"
   width="319.72321"
   height="125.40253"
   id="svg2"
   version="1.1"
   inkscape:version="0.48.4 r9939"
   sodipodi:docname="logo.svg">
  <defs
     id="defs4" />
  <sodipodi:namedview
     id="base"
     pagecolor="#ffffff"
     bordercolor="#666666"
     borderopacity="1.0"
     inkscape:pageopacity="0.0"
     inkscape:pageshadow="2"
     inkscape:zoom="1.4"
     inkscape:cx="42.121381"
     inkscape:cy="27.857742"
     inkscape:document-units="px"
     inkscape:current-layer="layer1"
     showgrid="false"
     inkscape:window-width="1366"
     inkscape:window-height="716"
     inkscape:window-x="0"
     inkscape:window-y="0"
     inkscape:window-maximized="1"
     fit-margin-top="0"
     fit-margin-left="0"
     fit-margin-right="0"
     fit-margin-bottom="0" />
  <metadata
     id="metadata7">
    <rdf:RDF>
      <cc:Work
         rdf:about="">
        <dc:format>image/svg+xml</dc:format>
        <dc:type
           rdf:resource="http://purl.org/dc/dcmitype/StillImage" />
        <dc:title></dc:title>
      </cc:Work>
    </rdf:RDF>
  </metadata>
  <g
     inkscape:label="Layer 1"
     inkscape:groupmode="layer"
     id="layer1"
     transform="translate(-181.43304,-258.03501)">
    <path
       style="fill:#c8beb7;stroke-width:3;stroke-miterlimit:4"
       d="m 258.5625,258.06252 c 0,0 -77.12946,-3.26862 -77.12946,61.44643 0,64.71505 43.50322,56.60988 75.70089,62.84375 30.44291,5.89412 57.57215,-28.54913 88.58009,-28.41073 30.49185,0.13609 57.03916,35.11039 86.85294,28.7143 30.32567,-6.50591 68.58929,-2.44566 68.58929,-62.875 0,-60.42934 -68.58929,-61.41518 -68.58929,-61.41518 -58.00133,-0.25152 -116.00276,-0.28649 -174.00446,-0.30357 z"
       id="path3006"
       inkscape:connector-curvature="0"
       sodipodi:nodetypes="czaaazcc" />
    <g
       id="g3831"
       transform="matrix(1.0596597,0,0,1.0596597,-9.6592282,-13.848489)">
      <path
         id="rect3038"
         d="m 240,291.21875 0,19.15625 -21,0 0,12 21,0 0,22.84375 12,0 0,-22.84375 21,0 0,-12 -21,0 0,-19.15625 -12,0 z"
         style="fill:#4d4d4d;stroke-width:3;stroke-miterlimit:4"
         inkscape:connector-curvature="0" />
      <path
         transform="matrix(2.3278689,0,0,2.3278689,-241.47542,-349.68236)"
         d="m 224.28572,285.93362 c 0,8.28428 -6.71573,15 -15,15 -8.28427,0 -15,-6.71572 -15,-15 0,-8.28427 6.71573,-15 15,-15 8.28427,0 15,6.71573 15,15 z"
         sodipodi:ry="15"
         sodipodi:rx="15"
         sodipodi:cy="285.93362"
         sodipodi:cx="209.28572"
         id="path3058"
         style="fill:none;stroke:#ffffff;stroke-width:0.85915494;stroke-miterlimit:4;stroke-opacity:0.10309281;stroke-dasharray:none"
         sodipodi:type="arc" />
      <g
         id="g3905"
         transform="translate(-4.0444251,-2.0222126)">
        <path
           sodipodi:type="arc"
           style="fill:#aaabab;fill-opacity:1;stroke:#ffffff;stroke-width:0.85915494;stroke-miterlimit:4;stroke-opacity:0.10309281;stroke-dasharray:none"
           id="path3058-3"
           sodipodi:cx="209.28572"
           sodipodi:cy="285.93362"
           sodipodi:rx="15"
           sodipodi:ry="15"
           d="m 224.28572,285.93362 c 0,8.28428 -6.71573,15 -15,15 -8.28427,0 -15,-6.71572 -15,-15 0,-8.28427 6.71573,-15 15,-15 8.28427,0 15,6.71573 15,15 z"
           transform="matrix(2.895799,0,0,2.895799,-186.42482,-513.42084)" />
        <path
           transform="matrix(1.3369072,0,0,1.3369072,-124.1821,-81.735614)"
           d="m 435.71427,296.64789 c 0,5.12836 -4.15735,9.28571 -9.28571,9.28571 -5.12836,0 -9.28572,-4.15735 -9.28572,-9.28571 0,-5.12836 4.15736,-9.28572 9.28572,-9.28572 5.12836,0 9.28571,4.15736 9.28571,9.28572 z"
           sodipodi:ry="9.2857141"
           sodipodi:rx="9.2857141"
           sodipodi:cy="296.64789"
           sodipodi:cx="426.42856"
           id="path3871"
           style="fill:#ff0000;stroke:#ff363b;stroke-width:2;stroke-linejoin:round;stroke-miterlimit:4;stroke-opacity:0.64948449;stroke-dasharray:none"
           sodipodi:type="arc" />
        <path
           transform="matrix(1.3369072,0,0,1.3369072,-149.9316,-57.199435)"
           d="m 435.71427,296.64789 c 0,5.12836 -4.15735,9.28571 -9.28571,9.28571 -5.12836,0 -9.28572,-4.15735 -9.28572,-9.28571 0,-5.12836 4.15736,-9.28572 9.28572,-9.28572 5.12836,0 9.28571,4.15736 9.28571,9.28572 z"
           sodipodi:ry="9.2857141"
           sodipodi:rx="9.2857141"
           sodipodi:cy="296.64789"
           sodipodi:cx="426.42856"
           id="path3871-6"
           style="fill:#fffe00;fill-opacity:1;stroke:#ffff3b;stroke-width:2;stroke-linejoin:round;stroke-miterlimit:4;stroke-opacity:0.64948449;stroke-dasharray:none"
           sodipodi:type="arc" />
        <path
           transform="matrix(1.3369072,0,0,1.3369072,-173.38927,-81.735614)"
           d="m 435.71427,296.64789 c 0,5.12836 -4.15735,9.28571 -9.28571,9.28571 -5.12836,0 -9.28572,-4.15735 -9.28572,-9.28571 0,-5.12836 4.15736,-9.28572 9.28572,-9.28572 5.12836,0 9.28571,4.15736 9.28571,9.28572 z"
           sodipodi:ry="9.2857141"
           sodipodi:rx="9.2857141"
           sodipodi:cy="296.64789"
           sodipodi:cx="426.42856"
           id="path3871-3"
           style="fill:#00ff00;fill-opacity:1;stroke:#00ff00;stroke-width:2;stroke-linejoin:round;stroke-miterlimit:4;stroke-opacity:0.64948449;stroke-dasharray:none"
           sodipodi:type="arc" />
        <path
           transform="matrix(1.3369072,0,0,1.3369072,-149.9316,-105.59772)"
           d="m 435.71427,296.64789 c 0,5.12836 -4.15735,9.28571 -9.28571,9.28571 -5.12836,0 -9.28572,-4.15735 -9.28572,-9.28571 0,-5.12836 4.15736,-9.28572 9.28572,-9.28572 5.12836,0 9.28571,4.15736 9.28571,9.28572 z"
           sodipodi:ry="9.2857141"
           sodipodi:rx="9.2857141"
           sodipodi:cy="296.64789"
           sodipodi:cx="426.42856"
           id="path3871-7"
           style="fill:#0000ff;fill-opacity:1;stroke:#0000ff;stroke-width:2;stroke-linejoin:round;stroke-miterlimit:4;stroke-opacity:0.64948449;stroke-dasharray:none"
           sodipodi:type="arc" />
      </g>
    </g>
    <rect
       style="fill:#4d4d4d;fill-opacity:1;stroke:none"
       id="rect3912"
       width="24.613686"
       height="7.7741041"
       x="86.966331"
       y="475.52896"
       transform="matrix(0.81312257,-0.5820925,0.5820925,0.81312257,0,0)" />
    <rect
       style="fill:#4d4d4d;fill-opacity:1;stroke:none"
       id="rect3912-7"
       width="24.613686"
       height="7.7741041"
       x="58.681282"
       y="455.28046"
       transform="matrix(0.81312257,-0.5820925,0.5820925,0.81312257,0,0)" />
  </g>
</svg>
